<svg width="349" height="257" viewBox="0 0 349 257" fill="none" xmlns="http://www.w3.org/2000/svg">
<path d="M8.80682 24.2727H19.3182L44.0341 84.642H44.8864L69.6023 24.2727H80.1136V97H71.875V41.7443H71.1648L48.4375 97H40.483L17.7557 41.7443H17.0455V97H8.80682V24.2727Z" fill="white"/>
<g filter="url(#filter0_i_308_48)">
<path d="M8.80682 24.2727H19.3182L44.0341 84.642H44.8864L69.6023 24.2727H80.1136V97H71.875V41.7443H71.1648L48.4375 97H40.483L17.7557 41.7443H17.0455V97H8.80682V24.2727Z" fill="url(#paint0_linear_308_48)"/>
</g>
<g filter="url(#filter1_i_308_48)">
<path d="M16.0455 38.8182H24.4545L44.2273 87.1136H44.9091L64.6818 38.8182H73.0909V97H66.5V52.7955H65.9318L47.75 97H41.3864L23.2045 52.7955H22.6364V97H16.0455V38.8182Z" fill="url(#paint1_linear_308_48)"/>
</g>
<defs>
<filter id="filter0_i_308_48" x="8.80682" y="24.2727" width="71.3068" height="76.7273" filterUnits="userSpaceOnUse" color-interpolation-filters="sRGB">
<feFlood flood-opacity="0" result="BackgroundImageFix"/>
<feBlend mode="normal" in="SourceGraphic" in2="BackgroundImageFix" result="shape"/>
<feColorMatrix in="SourceAlpha" type="matrix" values="0 0 0 0 0 0 0 0 0 0 0 0 0 0 0 0 0 0 127 0" result="hardAlpha"/>
<feOffset dy="4"/>
<feGaussianBlur stdDeviation="2"/>
<feComposite in2="hardAlpha" operator="arithmetic" k2="-1" k3="1"/>
<feColorMatrix type="matrix" values="0 0 0 0 0 0 0 0 0 0 0 0 0 0 0 0 0 0 0.25 0"/>
<feBlend mode="normal" in2="shape" result="effect1_innerShadow_308_48"/>
</filter>
<filter id="filter1_i_308_48" x="16.0454" y="38.8182" width="57.0455" height="62.1818" filterUnits="userSpaceOnUse" color-interpolation-filters="sRGB">
<feFlood flood-opacity="0" result="BackgroundImageFix"/>
<feBlend mode="normal" in="SourceGraphic" in2="BackgroundImageFix" result="shape"/>
<feColorMatrix in="SourceAlpha" type="matrix" values="0 0 0 0 0 0 0 0 0 0 0 0 0 0 0 0 0 0 127 0" result="hardAlpha"/>
<feOffset dy="4"/>
<feGaussianBlur stdDeviation="2"/>
<feComposite in2="hardAlpha" operator="arithmetic" k2="-1" k3="1"/>
<feColorMatrix type="matrix" values="0 0 0 0 0 0 0 0 0 0 0 0 0 0 0 0 0 0 0.25 0"/>
<feBlend mode="normal" in2="shape" result="effect1_innerShadow_308_48"/>
</filter>
<linearGradient id="paint0_linear_308_48" x1="170" y1="0" x2="170" y2="238" gradientUnits="userSpaceOnUse">
<stop stop-color="#000B07"/>
<stop offset="0.9994" stop-color="#00FACD"/>
<stop offset="0.9995" stop-color="#00FFFF"/>
<stop offset="0.9996" stop-color="#028484"/>
<stop offset="0.9997"/>
<stop offset="0.9998" stop-color="#10AA7C"/>
<stop offset="0.9999" stop-color="white"/>
<stop offset="1" stop-color="white" stop-opacity="0"/>
</linearGradient>
<linearGradient id="paint1_linear_308_48" x1="179" y1="19" x2="179" y2="257" gradientUnits="userSpaceOnUse">
<stop stop-color="#01281D"/>
<stop offset="0.9995" stop-color="#00BE9C"/>
<stop offset="0.9996" stop-color="#028484"/>
<stop offset="0.9997"/>
<stop offset="0.9998" stop-color="#10AA7C"/>
<stop offset="0.9999" stop-color="white"/>
<stop offset="1" stop-color="white" stop-opacity="0"/>
</linearGradient>
</defs>
</svg>
